<svg width="800" height="800" viewBox="0 0 800 800" fill="none" xmlns="http://www.w3.org/2000/svg">
<path d="M800 528.67V543.65C799.56 563.81 798.433 583.94 796.62 604.04C796.607 604.184 796.564 604.325 796.494 604.452C796.423 604.58 796.326 604.691 796.21 604.78C775.47 620.287 753.81 634.687 731.23 647.98C704.877 663.493 675.533 677.777 643.2 690.83C625.687 697.897 609.42 703.633 594.4 708.04C594.313 708.067 594.218 708.065 594.129 708.034C594.039 708.004 593.96 707.947 593.9 707.87C577.73 686.22 563.38 662.08 551.05 637.53C551.009 637.446 550.985 637.354 550.981 637.26C550.977 637.167 550.993 637.073 551.026 636.987C551.06 636.9 551.112 636.822 551.178 636.757C551.244 636.692 551.323 636.642 551.41 636.61C574.65 627.73 597.4 616.98 618.64 603.87C618.671 603.851 618.697 603.825 618.716 603.793C618.734 603.762 618.745 603.726 618.747 603.689C618.749 603.652 618.742 603.615 618.727 603.58C618.712 603.545 618.689 603.514 618.66 603.49L602.7 590.86C602.583 590.766 602.442 590.706 602.294 590.687C602.146 590.668 601.996 590.689 601.86 590.75C585.59 598.05 569.15 605.19 553.36 610.57C543.87 613.81 530.48 618.25 519.91 620.84C512.33 622.71 504.62 624.92 496.12 626.57C485.27 628.67 477.72 630.33 468.59 631.63C451.71 634.03 434.933 635.6 418.26 636.34C411.4 636.65 402.84 636.43 396.24 636.5C374.06 636.73 351.4 634.47 329.79 631.26C321.2 629.98 311.11 627.76 302.81 626.2C295.53 624.83 287.78 622.55 280.74 620.84C275.787 619.64 270.333 618.073 264.38 616.14C256.95 613.73 249.22 611.47 242.4 608.98C228.12 603.767 213.423 597.69 198.31 590.75C198.148 590.675 197.968 590.646 197.79 590.668C197.611 590.689 197.442 590.759 197.3 590.87L181.3 603.54C181.265 603.568 181.237 603.604 181.218 603.645C181.2 603.686 181.191 603.73 181.193 603.774C181.195 603.819 181.207 603.861 181.23 603.899C181.252 603.936 181.283 603.967 181.32 603.99C184.607 606.097 189.61 608.96 196.33 612.58C213.87 622.02 231.35 630.08 248.77 636.76C248.815 636.777 248.857 636.803 248.891 636.838C248.926 636.872 248.952 636.913 248.969 636.959C248.986 637.004 248.993 637.053 248.99 637.102C248.987 637.15 248.973 637.197 248.95 637.24C236.66 661.77 222.27 685.68 205.83 708.06C205.792 708.11 205.74 708.148 205.679 708.167C205.618 708.187 205.552 708.188 205.49 708.17C132.263 685.31 65.0467 650.833 3.84 604.74C3.69487 604.63 3.57385 604.49 3.48441 604.33C3.39496 604.17 3.33901 603.993 3.32 603.81C1.54667 584.017 0.44 564.197 0 544.35V510.27C0.08 510.237 0.16 510.2 0.24 510.16C0.261029 510.15 0.278824 510.135 0.291243 510.115C0.303662 510.096 0.310176 510.073 0.31 510.05C2.95667 432.363 17.8967 358.453 45.13 288.32C65.07 236.947 90.6733 187.977 121.94 141.41C122.169 141.07 122.483 140.8 122.85 140.63C174.69 116.42 230.16 98.9099 286.85 89.0799C286.968 89.0595 287.089 89.0755 287.196 89.1256C287.303 89.1757 287.392 89.2576 287.45 89.3599C295.283 103.62 302.24 117.983 308.32 132.45C308.394 132.633 308.528 132.785 308.7 132.883C308.872 132.981 309.073 133.019 309.27 132.99C369.597 123.803 430.07 123.807 490.69 133C490.877 133.028 491.068 132.993 491.232 132.901C491.397 132.809 491.527 132.664 491.6 132.49C497.82 117.723 504.753 103.413 512.4 89.5599C512.475 89.4297 512.586 89.3249 512.72 89.259C512.853 89.193 513.003 89.1689 513.15 89.1899C522.897 90.5699 537.15 93.5499 555.91 98.1299C598.07 108.417 638.5 122.633 677.2 140.78C677.54 140.944 677.827 141.192 678.03 141.5C691.497 161.86 703.743 182.103 714.77 202.23C740.863 249.857 761.133 299.603 775.58 351.47C790.147 403.777 798.107 457.787 799.46 513.5C799.587 518.567 799.767 523.623 800 528.67ZM267.06 347.42C247.964 347.42 229.651 356.049 216.148 371.408C202.646 386.767 195.06 407.599 195.06 429.32C195.06 451.041 202.646 471.873 216.148 487.232C229.651 502.591 247.964 511.22 267.06 511.22C286.156 511.22 304.469 502.591 317.972 487.232C331.474 471.873 339.06 451.041 339.06 429.32C339.06 407.599 331.474 386.767 317.972 371.408C304.469 356.049 286.156 347.42 267.06 347.42ZM532.727 347.42C523.272 347.437 513.913 349.572 505.185 353.705C496.456 357.837 488.53 363.886 481.857 371.506C475.185 379.125 469.897 388.166 466.296 398.113C462.695 408.059 460.851 418.716 460.87 429.476C460.889 440.235 462.77 450.885 466.405 460.819C470.041 470.753 475.36 479.776 482.06 487.372C488.759 494.968 496.706 500.989 505.449 505.091C514.192 509.193 523.558 511.296 533.013 511.28C542.468 511.263 551.827 509.128 560.555 504.995C569.284 500.863 577.21 494.814 583.883 487.194C590.555 479.575 595.843 470.534 599.444 460.587C603.045 450.64 604.889 439.983 604.87 429.224C604.851 418.465 602.97 407.814 599.335 397.881C595.699 387.947 590.38 378.924 583.68 371.328C576.981 363.732 569.034 357.711 560.291 353.608C551.548 349.506 542.182 347.404 532.727 347.42Z" fill="black"/>
</svg>
